<svg id="Layer_1" data-name="Layer 1" xmlns="http://www.w3.org/2000/svg" viewBox="0 0 498.12489 620.61393"><defs><style>.cls-1,.cls-2,.cls-4,.cls-5,.cls-6{fill:none;}.cls-1,.cls-2,.cls-3,.cls-4,.cls-5,.cls-6{stroke:#000;stroke-linecap:round;stroke-linejoin:round;}.cls-1,.cls-3{stroke-width:40px;}.cls-2{stroke-width:30px;}.cls-4{stroke-width:5px;}.cls-5{stroke-width:10px;}.cls-6{stroke-width:20px;}</style></defs><circle class="cls-1" cx="249.08326" cy="337.5" r="200"/><line class="cls-1" x1="181.08326" y1="525.5" x2="153.31762" y2="600.61393"/><line class="cls-1" x1="317.08326" y1="525.5" x2="344.8489" y2="600.61393"/><line class="cls-2" x1="108.08326" y1="196.5" x2="19.08326" y2="107.5"/><line class="cls-2" x1="479.08326" y1="107.5" x2="390.08326" y2="196.5"/><path class="cls-3" d="M571,146a48.08326,48.08326,0,0,0-68,68Z" transform="translate(-468.91674 -23.5)"/><path class="cls-3" d="M932.95837,213.54163a48.08326,48.08326,0,0,0-68-68Z" transform="translate(-468.91674 -23.5)"/><path class="cls-4" d="M864.5,47.5" transform="translate(-468.91674 -23.5)"/><path class="cls-5" d="M948.5,131.5s-20-13-42-30-11-35-42-54-146-19-146-19-116,0-147,19-17,37-39,54A400.80853,400.80853,0,0,1,488,131" transform="translate(-468.91674 -23.5)"/><line class="cls-6" x1="249.08326" y1="237.5" x2="249.08325" y2="177.5"/><line class="cls-6" x1="249.08326" y1="437.5" x2="249.08326" y2="497.5"/><line class="cls-6" x1="149.08326" y1="337.5" x2="89.08326" y2="337.5"/><line class="cls-6" x1="349.08326" y1="337.5" x2="409.08326" y2="337.5"/><circle cx="249.08326" cy="337.5" r="20"/><line class="cls-6" x1="249.08326" y1="132.5" x2="249.08325" y2="102.5"/><line class="cls-6" x1="234.08326" y1="102.5" x2="264.08326" y2="102.5"/></svg>